# xmcd
#
# Track frame offsets:
#	150
#	21867
#	34567
#	54520
#	63482
#	76087
#	88865
#	104679
#	118412
#	131097
#	141550
#	157050
#	171712
#	187417
#	208587
#	219435
#
# Disc length: 3056 seconds
#
# Revision: 1
# Processed by: cddbd v1.4PL0 Copyright (c) Steve Scherf et al.
# Submitted via: audiograbber 1.82.02
#
DISCID=fe0bee10
DTITLE=Jonny Hill - Gestern&Heute CD01
DYEAR=2002
DGENRE=Country
TTITLE0=Ruf Teddybär Eins-Vier
TTITLE1=Green Green Grass Of Home (deutsch)
TTITLE2=Dein Erster Brief
TTITLE3=Ein Ring Aus Feuer (Ring Of Fire)
TTITLE4=Freunde
TTITLE5=My Darling Celmentine
TTITLE6=Ich Möcht So Gern Dave Dudley Hör'n
TTITLE7=Jetzt Sag Ich Euch Gute Nacht
TTITLE8=Kann Liebe Alles Verzeihn (Some Broken Hearts)
TTITLE9=König Der Landstrasse (King Of The Road)
TTITLE10=Lucille
TTITLE11=Nur Noch Einmal Nach Haus (Detroit City)
TTITLE12=Pack Doch Deine Koffer Wieder Aus
TTITLE13=Papillon
TTITLE14=Adios Amigo
TTITLE15=Oh Susanna
EXTD=
EXTT0=
EXTT1=
EXTT2=
EXTT3=
EXTT4=
EXTT5=
EXTT6=
EXTT7=
EXTT8=
EXTT9=
EXTT10=
EXTT11=
EXTT12=
EXTT13=
EXTT14=
EXTT15=
PLAYORDER=
